HIERARCHY
ROOT root_translation_joint
{
	OFFSET	0	0	0
	CHANNELS 6 Xposition Yposition Zposition Zrotation Xrotation Yrotation
	JOINT torso_x_joint
	{
		OFFSET	0	0.010284	0.327936
		CHANNELS 3  Zrotation Xrotation Yrotation
		JOINT head_x_joint
		{
			OFFSET	0	-0.020052	0.50232
			CHANNELS 3  Zrotation Xrotation Yrotation
			JOINT upper_left_specula_joint
			{
				OFFSET	-0.0873828	0.0381	-0.153156
				CHANNELS 3  Zrotation Xrotation Yrotation
				JOINT upper_left_arm_x_joint
				{
					OFFSET	-0.169296	0	0
					CHANNELS 3  Zrotation Xrotation Yrotation
					JOINT lower_left_arm_joint
					{
						OFFSET	-0.001464	-0.00114	-0.34296
						CHANNELS 3  Zrotation Xrotation Yrotation
						JOINT left_hand_x_joint
						{
							OFFSET	-0.001728	-0.004992	-0.325056
							CHANNELS 3  Zrotation Xrotation Yrotation
							JOINT left_hand_endeffector_joint
							{
								OFFSET	-0.009816	0.007404	-0.21684
								CHANNELS 3  Zrotation Xrotation Yrotation
								End Site
								{
									OFFSET	-2.25979e-05	1.70451e-05	-0.000499198
								}
							}
							JOINT left_hand_cp_1_joint
							{
								OFFSET	0.01757	0.0606	-0.22569
								CHANNELS 3  Zrotation Xrotation Yrotation
								End Site
								{
									OFFSET	3.74876e-05	0.000129297	-0.000481536
								}
							}
							JOINT left_hand_cp_2_joint
							{
								OFFSET	0.01757	-0.06468	-0.22569
								CHANNELS 3  Zrotation Xrotation Yrotation
								End Site
								{
									OFFSET	3.73144e-05	-0.000137365	-0.000479311
								}
							}
							JOINT left_hand_cp_3_joint
							{
								OFFSET	0.01757	-0.06468	-0.02705
								CHANNELS 3  Zrotation Xrotation Yrotation
								End Site
								{
									OFFSET	0.000121547	-0.000447448	-0.000187128
								}
							}
							JOINT left_hand_cp_4_joint
							{
								OFFSET	0.01757	0.0606	-0.02705
								CHANNELS 3  Zrotation Xrotation Yrotation
								End Site
								{
									OFFSET	0.000127969	0.000441372	-0.000197015
								}
							}
						}
					}
				}
			}
			JOINT upper_right_specula_joint
			{
				OFFSET	0.0873852	0.0381	-0.153312
				CHANNELS 3  Zrotation Xrotation Yrotation
				JOINT upper_right_arm_x_joint
				{
					OFFSET	0.16926	0.003768	-0.0003
					CHANNELS 3  Zrotation Xrotation Yrotation
					JOINT lower_right_arm_joint
					{
						OFFSET	-0.005592	-0.007404	-0.342828
						CHANNELS 3  Zrotation Xrotation Yrotation
						JOINT right_hand_x_joint
						{
							OFFSET	-0.004728	-0.003084	-0.325056
							CHANNELS 3  Zrotation Xrotation Yrotation
							JOINT right_hand_endeffector_joint
							{
								OFFSET	-0.000348	0.010884	-0.21684
								CHANNELS 3  Zrotation Xrotation Yrotation
								End Site
								{
									OFFSET	-8.01425e-07	2.50653e-05	-0.000499371
								}
							}
							JOINT right_hand_cp_1_joint
							{
								OFFSET	-0.01229	0.05553	-0.01712
								CHANNELS 3  Zrotation Xrotation Yrotation
								End Site
								{
									OFFSET	-0.000103461	0.000467467	-0.000144121
								}
							}
							JOINT right_hand_cp_2_joint
							{
								OFFSET	-0.01229	-0.06975	-0.01712
								CHANNELS 3  Zrotation Xrotation Yrotation
								End Site
								{
									OFFSET	-8.43349e-05	-0.00047863	-0.000117479
								}
							}
							JOINT right_hand_cp_3_joint
							{
								OFFSET	-0.01229	-0.06975	-0.21577
								CHANNELS 3  Zrotation Xrotation Yrotation
								End Site
								{
									OFFSET	-2.7059e-05	-0.000153569	-0.000475062
								}
							}
							JOINT right_hand_cp_4_joint
							{
								OFFSET	-0.01229	0.05553	-0.21577
								CHANNELS 3  Zrotation Xrotation Yrotation
								End Site
								{
									OFFSET	-2.75388e-05	0.000124429	-0.000483486
								}
							}
						}
					}
				}
			}
		}
	}
	JOINT upper_left_leg_x_joint
	{
		OFFSET	-0.106044	-0.001956	-0.144312
		CHANNELS 3  Zrotation Xrotation Yrotation
		JOINT lower_left_leg_joint
		{
			OFFSET	-0.025332	-0.01956	-0.477768
			CHANNELS 3  Zrotation Xrotation Yrotation
			JOINT left_foot_x_joint
			{
				OFFSET	-0.008988	0.036996	-0.474504
				CHANNELS 3  Zrotation Xrotation Yrotation
				JOINT left_foot_cp_1_joint
				{
					OFFSET	0.08027	0.27372	-0.12195
					CHANNELS 3  Zrotation Xrotation Yrotation
					End Site
					{
						OFFSET	0.000129375	0.000441168	-0.000196553
					}
				}
				JOINT left_foot_cp_2_joint
				{
					OFFSET	-0.09166	0.27372	-0.12195
					CHANNELS 3  Zrotation Xrotation Yrotation
					End Site
					{
						OFFSET	-0.000146252	0.000436747	-0.000194583
					}
				}
				JOINT left_foot_cp_3_joint
				{
					OFFSET	-0.09166	-0.07769	-0.12195
					CHANNELS 3  Zrotation Xrotation Yrotation
					End Site
					{
						OFFSET	-0.0002677	-0.0002269	-0.000356164
					}
				}
				JOINT left_foot_cp_4_joint
				{
					OFFSET	0.08027	-0.07769	-0.12195
					CHANNELS 3  Zrotation Xrotation Yrotation
					End Site
					{
						OFFSET	0.000242682	-0.000234882	-0.000368695
					}
				}
			}
		}
	}
	JOINT upper_right_leg_x_joint
	{
		OFFSET	0.106044	-0.001956	-0.1443
		CHANNELS 3  Zrotation Xrotation Yrotation
		JOINT lower_right_leg_joint
		{
			OFFSET	0.025332	-0.01956	-0.47778
			CHANNELS 3  Zrotation Xrotation Yrotation
			JOINT right_foot_x_joint
			{
				OFFSET	0.008988	0.036996	-0.474504
				CHANNELS 3  Zrotation Xrotation Yrotation
				JOINT right_foot_cp_1_joint
				{
					OFFSET	0.10495	0.2684	-0.12195
					CHANNELS 3  Zrotation Xrotation Yrotation
					End Site
					{
						OFFSET	0.00016769	0.000428851	-0.000194852
					}
				}
				JOINT right_foot_cp_2_joint
				{
					OFFSET	-0.06698	0.2684	-0.12195
					CHANNELS 3  Zrotation Xrotation Yrotation
					End Site
					{
						OFFSET	-0.000110777	0.000443902	-0.000201691
					}
				}
				JOINT right_foot_cp_3_joint
				{
					OFFSET	-0.06698	-0.08301	-0.12195
					CHANNELS 3  Zrotation Xrotation Yrotation
					End Site
					{
						OFFSET	-0.00020671	-0.00025618	-0.000376355
					}
				}
				JOINT right_foot_cp_4_joint
				{
					OFFSET	0.10495	-0.08301	-0.12195
					CHANNELS 3  Zrotation Xrotation Yrotation
					End Site
					{
						OFFSET	0.000289847	-0.000229254	-0.000336796
					}
				}
			}
		}
	}
}
MOTION
Frames:	8
Frame Time: 1
1.4747	0.590375	-0.0216339	-143.939	-0.206523	15.457	-0	0	-0	-0	0	-0	-0	0	-0	-81.638	-14.4218	125.144	-0	57.9145	-0	-73.1662	10.563	62.7191	-0	0	-0	-0	0	-0	-0	0	-0	-0	0	-0	-0	0	-0	-0	0	-0	-94.0417	80.4881	17.7444	-180	88.3782	-180	48.0405	4.9077	-17.3124	-0	0	-0	-0	0	-0	-0	0	-0	-0	0	-0	-0	0	-0	108.613	27.2447	-76.827	-180	-88.391	-180	17.204	14.4537	-44.8372	-0	0	-0	-0	0	-0	-0	0	-0	-0	0	-0	-106.736	63.7625	35.2029	-0	-54.7083	-0	-38.6355	28.164	65.8847	-0	0	-0	-0	0	-0	-0	0	-0	-0	0	-0
1.57066	0.597492	-0.0488636	-139.928	-0.241268	15.7045	-0	0	-0	-0	0	-0	-0	0	-0	-90.6224	-18.8266	131.536	-0	55.2806	-0	-54.2986	8.40746	54.6798	-0	0	-0	-0	0	-0	-0	0	-0	-0	0	-0	-0	0	-0	-0	0	-0	173.318	77.7437	101.818	-0	77.5197	-0	41.9014	-1.95695	-10.8067	-0	0	-0	-0	0	-0	-0	0	-0	-0	0	-0	-0	0	-0	102.886	20.0039	-79.0223	-180	-82.2298	-180	30.0688	18.7975	-48.9924	-0	0	-0	-0	0	-0	-0	0	-0	-0	0	-0	-119.149	50.3135	33.0435	-0	-24.7728	-0	22.2023	53.6146	29.0576	-0	0	-0	-0	0	-0	-0	0	-0	-0	0	-0
1.57066	0.597492	-0.0488636	-139.928	-0.241268	15.7045	-0	0	-0	-0	0	-0	-0	0	-0	-90.6224	-18.8266	131.536	-0	55.2806	-0	-54.2986	8.40746	54.6798	-0	0	-0	-0	0	-0	-0	0	-0	-0	0	-0	-0	0	-0	-0	0	-0	173.318	77.7437	101.818	-0	77.5197	-0	41.9014	-1.95695	-10.8067	-0	0	-0	-0	0	-0	-0	0	-0	-0	0	-0	-0	0	-0	102.886	20.0039	-79.0223	-180	-82.2298	-180	30.0688	18.7975	-48.9924	-0	0	-0	-0	0	-0	-0	0	-0	-0	0	-0	-119.149	50.3135	33.0435	-0	-24.7728	-0	22.2023	53.6146	29.0576	-0	0	-0	-0	0	-0	-0	0	-0	-0	0	-0
1.57066	0.597492	-0.0488636	-139.928	-0.241268	15.7045	-0	0	-0	-0	0	-0	-0	0	-0	-90.5971	-18.8387	131.561	-0	55.2902	-0	-54.317	8.41615	54.6725	-0	0	-0	-0	0	-0	-0	0	-0	-0	0	-0	-0	0	-0	-0	0	-0	-151.914	77.1238	69.4614	-0	85.2361	-0	42.7432	0.362419	-14.312	-0	0	-0	-0	0	-0	-0	0	-0	-0	0	-0	-0	0	-0	102.869	20.0326	-79.0028	-180	-82.225	-180	30.0863	18.8119	-48.9981	-0	0	-0	-0	0	-0	-0	0	-0	-0	0	-0	-119.304	50.4513	33.1874	-0	-25.1495	-0	22.1271	53.6947	29.1182	-0	0	-0	-0	0	-0	-0	0	-0	-0	0	-0
1.57066	0.597492	-0.0488636	-139.928	-0.241268	15.7045	-0	0	-0	-0	0	-0	-0	0	-0	-90.5746	-18.8506	131.59	-0	55.2936	-0	-54.3279	8.42278	54.6619	-0	0	-0	-0	0	-0	-0	0	-0	-0	0	-0	-0	0	-0	-0	0	-0	-127.607	74.36	47.5791	-180	89.2704	-180	43.6811	2.26573	-16.9485	-0	0	-0	-0	0	-0	-0	0	-0	-0	0	-0	-0	0	-0	102.869	20.0318	-79.0046	-180	-82.2266	-180	30.1029	18.8255	-49.0034	-0	0	-0	-0	0	-0	-0	0	-0	-0	0	-0	-119.353	50.5265	33.2391	-0	-25.3386	-0	22.1519	53.6684	29.0983	-0	0	-0	-0	0	-0	-0	0	-0	-0	0	-0
1.57066	0.597492	-0.0488636	-139.928	-0.241268	15.7045	-0	0	-0	-0	0	-0	-0	0	-0	-90.5521	-18.8625	131.619	-0	55.297	-0	-54.3388	8.42941	54.6514	-0	0	-0	-0	0	-0	-0	0	-0	-0	0	-0	-0	0	-0	-0	0	-0	-113.233	69.9777	35.2123	-180	83.4835	-180	44.8209	4.15558	-20.0037	-0	0	-0	-0	0	-0	-0	0	-0	-0	0	-0	-0	0	-0	102.87	20.031	-79.0065	-180	-82.2281	-180	30.1195	18.8392	-49.0088	-0	0	-0	-0	0	-0	-0	0	-0	-0	0	-0	-119.399	50.601	33.2902	-0	-25.5261	-0	22.1774	53.6412	29.0777	-0	0	-0	-0	0	-0	-0	0	-0	-0	0	-0
1.57066	0.597492	-0.0488636	-139.928	-0.241268	15.7045	-0	0	-0	-0	0	-0	-0	0	-0	-90.5295	-18.8744	131.647	-0	55.3004	-0	-54.3497	8.43604	54.6408	-0	0	-0	-0	0	-0	-0	0	-0	-0	0	-0	-0	0	-0	-0	0	-0	-101.243	63.6858	25.9404	-180	77.9973	-180	46.3198	6.14641	-23.3287	-0	0	-0	-0	0	-0	-0	0	-0	-0	0	-0	-0	0	-0	102.87	20.0302	-79.0083	-180	-82.2297	-180	30.1361	18.8529	-49.0142	-0	0	-0	-0	0	-0	-0	0	-0	-0	0	-0	-119.444	50.6748	33.3406	-0	-25.7118	-0	22.2036	53.6132	29.0566	-0	0	-0	-0	0	-0	-0	0	-0	-0	0	-0
1.57066	0.597492	-0.0488636	-139.928	-0.241268	15.7045	-0	0	-0	-0	0	-0	-0	0	-0	-90.5068	-18.8863	131.676	-0	55.3038	-0	-54.3606	8.44266	54.6302	-0	0	-0	-0	0	-0	-0	0	-0	-0	0	-0	-0	0	-0	-0	0	-0	-94.3326	57.9951	21.2919	-180	73.755	-180	47.7421	7.70318	-26.2395	-0	0	-0	-0	0	-0	-0	0	-0	-0	0	-0	-0	0	-0	102.87	20.0294	-79.0101	-180	-82.2313	-180	30.1529	18.8666	-49.0196	-0	0	-0	-0	0	-0	-0	0	-0	-0	0	-0	-119.486	50.7477	33.3902	-0	-25.8956	-0	22.2304	53.5846	29.035	-0	0	-0	-0	0	-0	-0	0	-0	-0	0	-0
